<svg width="24" height="24" viewBox="0 0 24 24" fill="none" xmlns="http://www.w3.org/2000/svg">
<path fill-rule="evenodd" clip-rule="evenodd" d="M5.63664 5.63606C6.02717 5.24554 6.66033 5.24554 7.05086 5.63606L18.3646 16.9498C18.7551 17.3403 18.7551 17.9735 18.3646 18.364C17.974 18.7545 17.3409 18.7545 16.9504 18.364L5.63664 7.05028C5.24612 6.65975 5.24612 6.02659 5.63664 5.63606Z" fill="#26272A"/>
<path fill-rule="evenodd" clip-rule="evenodd" d="M5.63679 18.364C5.24627 17.9734 5.24627 17.3403 5.63679 16.9498L16.9505 5.63605C17.341 5.24552 17.9742 5.24552 18.3647 5.63605C18.7552 6.02657 18.7552 6.65973 18.3647 7.05026L7.05101 18.364C6.66048 18.7545 6.02732 18.7545 5.63679 18.364Z" fill="#26272A"/>
</svg>
