<svg width="539" height="115" viewBox="0 0 539 115" fill="none" xmlns="http://www.w3.org/2000/svg">
<path fill-rule="evenodd" clip-rule="evenodd" d="M324.245 15.1447C325.812 15.1447 328.633 15.4128 332.707 15.949V26.8072H328.946C328.006 26.8072 327.16 27.0619 326.408 27.5713C325.656 28.0807 325.092 28.6303 324.715 29.2201L315.784 43.6977L334.117 72.2507H316.254L301.682 49.3279H293.22V72.2507H276.297V15.949H293.22V38.0675H301.682L311.083 22.7856C312.462 20.5335 314.17 18.697 316.207 17.2761C318.244 15.8551 320.923 15.1447 324.245 15.1447ZM178.457 15.949H140.851V27.0944H196.066C195.536 23.8573 194.179 21.3352 191.996 19.5281C189.113 17.142 184.6 15.949 178.457 15.949ZM140.851 72.2507V33.9885H157.774V38.4697H173.757C177.38 38.4697 179.258 36.976 179.39 33.9885H195.932C195.541 35.6332 194.856 37.0599 193.876 38.2686C192.246 40.2794 190.241 41.6869 187.859 42.4912C192.936 43.6709 196.383 46.5664 198.201 51.1778C198.828 52.84 199.141 54.7704 199.141 56.9688C199.141 62.2237 197.699 66.0843 194.816 68.5509C191.933 71.0175 187.42 72.2507 181.278 72.2507H140.851ZM212.1 72.2507V33.9885H229.023V38.0675H256.757V49.3279H229.023V60.9904H264.279V72.2507H212.1ZM264.279 15.949V27.0944H212.1V15.949H264.279ZM176.577 49.73C180.338 49.73 182.218 51.3386 182.218 54.5559V56.1645C182.218 59.3818 180.338 60.9904 176.577 60.9904H157.774V49.73H176.577ZM359.298 72.2507H376.221V33.9885H359.298V72.2507ZM339.555 27.0944V15.949H395.964V27.0944H339.555ZM405.162 33.9885V56.9688C405.162 62.599 406.651 66.6876 409.628 69.2346C412.605 71.7816 417.384 73.055 423.965 73.055H447.469C454.051 73.055 458.83 71.7816 461.807 69.2346C464.784 66.6876 466.273 62.599 466.273 56.9688V33.9885H449.35V56.9688C449.35 60.1861 447.47 61.7947 443.709 61.7947H427.726C423.965 61.7947 422.085 60.1861 422.085 56.9688V33.9885H405.162ZM465.962 27.0944H405.473C406.052 23.5495 407.437 20.8398 409.628 18.9651C412.605 16.4181 417.384 15.1447 423.965 15.1447H447.469C454.051 15.1447 458.83 16.4181 461.807 18.9651C463.998 20.8398 465.383 23.5495 465.962 27.0944ZM480.172 33.9885V72.2507H497.094V56.1645H519.658C526.24 56.1645 531.019 54.891 533.996 52.344C536.973 49.797 538.462 45.7085 538.462 40.0783V32.0352C538.462 26.405 536.973 22.3164 533.996 19.7694C531.019 17.2224 526.24 15.949 519.658 15.949H480.172V27.0944H503.867V27.1416H515.898C519.658 27.1416 521.539 28.8179 521.539 32.0352V40.0783C521.539 43.2955 519.658 44.9042 515.898 44.9042H497.094V33.9885H480.172Z" fill="#2B3F70"/>
<path opacity="0.500651" fill-rule="evenodd" clip-rule="evenodd" d="M164.058 99.0997C164.905 97.972 165.328 96.4858 165.328 94.6411V94.4506C165.328 92.4939 164.903 90.9667 164.053 89.8688C163.202 88.771 162.047 88.222 160.586 88.222C159.08 88.222 157.903 88.7448 157.057 89.7904L156.956 88.4461H155.056V105.227H157.135V99.391C157.982 100.325 159.143 100.791 160.619 100.791C162.065 100.791 163.212 100.227 164.058 99.0997ZM148.538 100.567H150.617V88.4461H140.851V100.567H142.941V90.1601H148.538V100.567ZM163.249 94.4058C163.249 93.0391 162.957 91.96 162.373 91.1683C161.788 90.3767 160.986 89.9808 159.967 89.9808C158.709 89.9808 157.765 90.5372 157.135 91.65V97.4417C157.757 98.547 158.709 99.0997 159.99 99.0997C160.986 99.0997 161.779 98.7057 162.367 97.9178C162.955 97.1299 163.249 95.9593 163.249 94.4058ZM169.222 91.1907C168.754 92.1392 168.52 93.2072 168.52 94.3946V94.5403C168.52 96.4223 169.031 97.9346 170.054 99.0773C171.076 100.22 172.412 100.791 174.06 100.791C175.154 100.791 176.123 100.53 176.965 100.007C177.808 99.4843 178.456 98.7543 178.91 97.817C179.363 96.8797 179.59 95.8211 179.59 94.6411V94.4955C179.59 92.5985 179.078 91.0787 178.056 89.936C177.033 88.7934 175.694 88.222 174.038 88.222C172.966 88.222 172.013 88.4797 171.178 88.995C170.342 89.5103 169.69 90.2422 169.222 91.1907ZM170.61 94.6411C170.61 95.9854 170.923 97.0646 171.548 97.8786C172.174 98.6927 173.011 99.0997 174.06 99.0997C175.117 99.0997 175.956 98.6871 176.578 97.8618C177.2 97.0366 177.511 95.8808 177.511 94.3946C177.511 93.0653 177.194 91.988 176.561 91.1627C175.928 90.3375 175.087 89.9248 174.038 89.9248C173.011 89.9248 172.183 90.3319 171.554 91.1459C170.925 91.96 170.61 93.125 170.61 94.6411ZM184.321 99.1725C185.355 100.252 186.696 100.791 188.344 100.791C190.382 100.791 191.911 100.011 192.929 98.4499L191.66 97.4641C191.277 97.957 190.832 98.3529 190.322 98.6516C189.813 98.9503 189.191 99.0997 188.457 99.0997C187.423 99.0997 186.57 98.7319 185.9 97.9962C185.229 97.2606 184.879 96.2953 184.849 95.1004H193.087V94.2378C193.087 92.3035 192.649 90.8173 191.772 89.7792C190.895 88.7411 189.667 88.222 188.086 88.222C187.119 88.222 186.222 88.489 185.394 89.023C184.566 89.557 183.922 90.2964 183.461 91.2411C183 92.1859 182.77 93.2594 182.77 94.4619V94.8427C182.77 96.6501 183.287 98.0933 184.321 99.1725ZM188.086 89.9248C187.247 89.9248 186.542 90.2292 185.973 90.8378C185.403 91.4465 185.051 92.2998 184.916 93.3976H191.008V93.2408C190.948 92.1877 190.663 91.3718 190.154 90.793C189.644 90.2142 188.955 89.9248 188.086 89.9248ZM198.863 95.4029H200.38L204.595 100.567H207.236L202.021 94.2714L206.831 88.4461H204.314L200.223 93.5769H198.863V88.4461H196.773V100.567H198.863V95.4029ZM219.16 90.1265H215.08V100.567H213.001V90.1265H209V88.4461H219.16V90.1265ZM230.139 100.567H232.218V88.4461H230.139V93.7001H224.554V88.4461H222.463V100.567H224.554V95.3917H230.139V100.567ZM236.107 94.3946C236.107 93.2072 236.341 92.1392 236.809 91.1907C237.277 90.2422 237.929 89.5103 238.765 88.995C239.6 88.4797 240.553 88.222 241.625 88.222C243.281 88.222 244.62 88.7934 245.643 89.936C246.665 91.0787 247.177 92.5985 247.177 94.4955V94.6411C247.177 95.8211 246.95 96.8797 246.497 97.817C246.043 98.7543 245.395 99.4843 244.552 100.007C243.71 100.53 242.741 100.791 241.647 100.791C239.999 100.791 238.663 100.22 237.641 99.0773C236.618 97.9346 236.107 96.4223 236.107 94.5403V94.3946ZM239.135 97.8786C238.51 97.0646 238.197 95.9854 238.197 94.6411C238.197 93.125 238.512 91.96 239.141 91.1459C239.77 90.3319 240.598 89.9248 241.625 89.9248C242.674 89.9248 243.515 90.3375 244.148 91.1627C244.781 91.988 245.098 93.0653 245.098 94.3946C245.098 95.8808 244.787 97.0366 244.165 97.8618C243.543 98.6871 242.704 99.0997 241.647 99.0997C240.598 99.0997 239.761 98.6927 239.135 97.8786ZM262.562 99.0997C263.303 99.0997 263.951 98.8756 264.506 98.4275C265.06 97.9794 265.367 97.4193 265.427 96.7472H267.394C267.357 97.4417 267.117 98.1027 266.675 98.73C266.233 99.3574 265.643 99.8577 264.905 100.231C264.167 100.605 263.386 100.791 262.562 100.791C260.906 100.791 259.589 100.24 258.611 99.1389C257.633 98.0373 257.145 96.5306 257.145 94.6187V94.2714C257.145 93.0914 257.362 92.0421 257.796 91.1235C258.231 90.2049 258.855 89.4917 259.668 88.9838C260.481 88.476 261.441 88.222 262.55 88.222C263.914 88.222 265.047 88.6291 265.95 89.4431C266.853 90.2572 267.334 91.3139 267.394 92.6134H265.427C265.367 91.8293 265.07 91.1851 264.534 90.681C263.998 90.1769 263.337 89.9248 262.55 89.9248C261.494 89.9248 260.675 90.3038 260.095 91.0619C259.514 91.8199 259.224 92.9159 259.224 94.3498V94.7419C259.224 96.1385 259.512 97.2139 260.089 97.9682C260.666 98.7225 261.49 99.0997 262.562 99.0997ZM275.789 90.1265H279.869V88.4461H269.709V90.1265H273.71V100.567H275.789V90.1265ZM293.265 94.6411C293.265 96.4858 292.841 97.972 291.995 99.0997C291.148 100.227 290.002 100.791 288.556 100.791C287.08 100.791 285.918 100.325 285.072 99.391V105.227H282.993V88.4461H284.892L284.993 89.7904C285.84 88.7448 287.016 88.222 288.522 88.222C289.983 88.222 291.139 88.771 291.989 89.8688C292.839 90.9667 293.265 92.4939 293.265 94.4506V94.6411ZM290.309 91.1683C290.893 91.96 291.186 93.0391 291.186 94.4058C291.186 95.9593 290.891 97.1299 290.303 97.9178C289.715 98.7057 288.923 99.0997 287.926 99.0997C286.645 99.0997 285.694 98.547 285.072 97.4417V91.65C285.701 90.5372 286.645 89.9808 287.904 89.9808C288.923 89.9808 289.725 90.3767 290.309 91.1683ZM296.456 94.3946C296.456 93.2072 296.69 92.1392 297.158 91.1907C297.627 90.2422 298.279 89.5103 299.114 88.995C299.949 88.4797 300.903 88.222 301.974 88.222C303.63 88.222 304.969 88.7934 305.992 89.936C307.015 91.0787 307.526 92.5985 307.526 94.4955V94.6411C307.526 95.8211 307.299 96.8797 306.846 97.817C306.393 98.7543 305.745 99.4843 304.902 100.007C304.059 100.53 303.091 100.791 301.997 100.791C300.348 100.791 299.013 100.22 297.99 99.0773C296.967 97.9346 296.456 96.4223 296.456 94.5403V94.3946ZM299.485 97.8786C298.859 97.0646 298.546 95.9854 298.546 94.6411C298.546 93.125 298.861 91.96 299.49 91.1459C300.12 90.3319 300.948 89.9248 301.974 89.9248C303.023 89.9248 303.864 90.3375 304.497 91.1627C305.13 91.988 305.447 93.0653 305.447 94.3946C305.447 95.8808 305.136 97.0366 304.514 97.8618C303.892 98.6871 303.053 99.0997 301.997 99.0997C300.948 99.0997 300.11 98.6927 299.485 97.8786ZM319.101 88.4461H321.181V100.567H319.101V91.7284L313.493 100.567H311.414V88.4461H313.493V97.2961L319.101 88.4461ZM330.576 90.1265H334.655V88.4461H324.496V90.1265H328.497V100.567H330.576V90.1265ZM341.926 100.791C340.278 100.791 338.937 100.252 337.903 99.1725C336.869 98.0933 336.352 96.6501 336.352 94.8427V94.4619C336.352 93.2594 336.582 92.1859 337.043 91.2411C337.504 90.2964 338.148 89.557 338.976 89.023C339.804 88.489 340.701 88.222 341.668 88.222C343.249 88.222 344.477 88.7411 345.354 89.7792C346.231 90.8173 346.669 92.3035 346.669 94.2378V95.1004H338.431C338.461 96.2953 338.811 97.2606 339.482 97.9962C340.152 98.7319 341.005 99.0997 342.039 99.0997C342.773 99.0997 343.395 98.9503 343.904 98.6516C344.414 98.3529 344.86 97.957 345.242 97.4641L346.512 98.4499C345.493 100.011 343.964 100.791 341.926 100.791ZM339.555 90.8378C340.124 90.2292 340.829 89.9248 341.668 89.9248C342.537 89.9248 343.226 90.2142 343.736 90.793C344.245 91.3718 344.53 92.1877 344.59 93.2408V93.3976H338.499C338.633 92.2998 338.986 91.4465 339.555 90.8378ZM360.144 88.4461V100.567H358.053V90.1601H353.917L353.67 94.6971C353.535 96.7808 353.185 98.2707 352.619 99.1669C352.054 100.063 351.157 100.53 349.928 100.567H349.096V98.7412L349.692 98.6964C350.366 98.6217 350.849 98.2334 351.142 97.5313C351.434 96.8293 351.621 95.5298 351.703 93.6329L351.928 88.4461H360.144ZM370.011 92.6246H366.853V88.4461H364.774V100.567H369.921C371.314 100.567 372.423 100.201 373.247 99.4694C374.072 98.7375 374.484 97.7666 374.484 96.5567C374.484 95.3543 374.083 94.4021 373.281 93.7001C372.48 92.9981 371.389 92.6396 370.011 92.6246ZM366.853 94.3162V98.8756H369.943C370.723 98.8756 371.326 98.6759 371.753 98.2763C372.18 97.8768 372.393 97.3297 372.393 96.6351C372.393 95.963 372.185 95.4122 371.77 94.9828C371.354 94.5533 370.771 94.3312 370.022 94.3162H366.853ZM386.037 100.567H388.116V88.4461H386.037V93.7001H380.451V88.4461H378.361V100.567H380.451V95.3917H386.037V100.567ZM400.062 100.567C399.942 100.328 399.845 99.9025 399.77 99.2901C398.803 100.291 397.649 100.791 396.308 100.791C395.11 100.791 394.126 100.453 393.358 99.7774C392.59 99.1016 392.206 98.2446 392.206 97.2065C392.206 95.9443 392.688 94.9641 393.65 94.2658C394.613 93.5675 395.967 93.2184 397.713 93.2184H399.736V92.2662C399.736 91.5417 399.519 90.9648 399.084 90.5354C398.65 90.1059 398.009 89.8912 397.162 89.8912C396.421 89.8912 395.799 90.0779 395.297 90.4513C394.795 90.8248 394.544 91.2766 394.544 91.8069H392.453C392.453 91.2019 392.669 90.6175 393.1 90.0537C393.531 89.4898 394.115 89.0436 394.853 88.715C395.591 88.3863 396.402 88.222 397.286 88.222C398.687 88.222 399.785 88.5712 400.579 89.2695C401.373 89.9678 401.785 90.9293 401.815 92.1541V97.733C401.815 98.8458 401.958 99.7308 402.242 100.388V100.567H400.062ZM398.466 98.4836C397.882 98.8196 397.264 98.9877 396.612 98.9877C395.93 98.9877 395.372 98.8047 394.937 98.4387C394.503 98.0728 394.285 97.565 394.285 96.9152C394.285 95.429 395.559 94.6859 398.107 94.6859H399.736V97.1729C399.474 97.7106 399.051 98.1475 398.466 98.4836ZM415.47 88.4461V100.567H413.379V95.851H410.244L407.378 100.567H405.13L408.187 95.5373C407.408 95.2535 406.81 94.8147 406.395 94.221C405.979 93.6273 405.771 92.9346 405.771 92.1429C405.771 91.0376 406.187 90.147 407.018 89.4711C407.85 88.7952 408.963 88.4536 410.356 88.4461H415.47ZM408.468 93.5937C408.064 93.2314 407.861 92.7553 407.861 92.1653C407.861 91.5604 408.09 91.0694 408.547 90.6922C409.004 90.315 409.618 90.1265 410.39 90.1265H413.379V94.1482H410.075C409.408 94.1407 408.873 93.9559 408.468 93.5937ZM430.495 95.4029H428.978V100.567H426.887V88.4461H428.978V93.5769H430.338L434.429 88.4461H436.946L432.136 94.2714L437.351 100.567H434.709L430.495 95.4029ZM440.154 91.1907C439.686 92.1392 439.452 93.2072 439.452 94.3946V94.5403C439.452 96.4223 439.963 97.9346 440.986 99.0773C442.009 100.22 443.344 100.791 444.992 100.791C446.086 100.791 447.055 100.53 447.898 100.007C448.74 99.4843 449.389 98.7543 449.842 97.817C450.295 96.8797 450.522 95.8211 450.522 94.6411V94.4955C450.522 92.5985 450.01 91.0787 448.988 89.936C447.965 88.7934 446.626 88.222 444.97 88.222C443.898 88.222 442.945 88.4797 442.11 88.995C441.274 89.5103 440.622 90.2422 440.154 91.1907ZM441.542 94.6411C441.542 95.9854 441.855 97.0646 442.481 97.8786C443.106 98.6927 443.943 99.0997 444.992 99.0997C446.049 99.0997 446.888 98.6871 447.51 97.8618C448.132 97.0366 448.443 95.8808 448.443 94.3946C448.443 93.0653 448.126 91.988 447.493 91.1627C446.86 90.3375 446.019 89.9248 444.97 89.9248C443.943 89.9248 443.116 90.3319 442.486 91.1459C441.857 91.96 441.542 93.125 441.542 94.6411ZM465.368 88.4461L461.232 97.8226L457.118 88.4461H454.421V100.567H456.5V91.5604L460.513 100.567H461.951L465.885 91.7508V100.567H467.964V88.4461H465.368ZM482.349 100.567H480.27V90.1601H474.673V100.567H472.582V88.4461H482.349V100.567ZM494.003 99.2901C494.078 99.9025 494.175 100.328 494.295 100.567H496.475V100.388C496.191 99.7308 496.048 98.8458 496.048 97.733V92.1541C496.018 90.9293 495.606 89.9678 494.812 89.2695C494.018 88.5712 492.92 88.222 491.519 88.222C490.635 88.222 489.824 88.3863 489.086 88.715C488.348 89.0436 487.764 89.4898 487.333 90.0537C486.902 90.6175 486.686 91.2019 486.686 91.8069H488.777C488.777 91.2766 489.028 90.8248 489.53 90.4513C490.032 90.0779 490.654 89.8912 491.395 89.8912C492.242 89.8912 492.883 90.1059 493.317 90.5354C493.752 90.9648 493.969 91.5417 493.969 92.2662V93.2184H491.946C490.2 93.2184 488.846 93.5675 487.883 94.2658C486.921 94.9641 486.439 95.9443 486.439 97.2065C486.439 98.2446 486.823 99.1016 487.591 99.7774C488.359 100.453 489.343 100.791 490.541 100.791C491.882 100.791 493.036 100.291 494.003 99.2901ZM490.845 98.9877C491.497 98.9877 492.115 98.8196 492.699 98.4836C493.284 98.1475 493.707 97.7106 493.969 97.1729V94.6859H492.339C489.792 94.6859 488.518 95.429 488.518 96.9152C488.518 97.565 488.736 98.0728 489.17 98.4387C489.605 98.8047 490.163 98.9877 490.845 98.9877ZM508.264 100.567H510.343V88.4461H508.264V93.7001H502.679V88.4461H500.588V100.567H502.679V95.3917H508.264V100.567ZM522.649 88.4461H524.728V100.567H522.649V91.7284L517.041 100.567H514.962V88.4461H517.041V97.2961L522.649 88.4461ZM538.462 100.567V88.4461H533.348C531.954 88.4536 530.842 88.7952 530.01 89.4711C529.178 90.147 528.763 91.0376 528.763 92.1429C528.763 92.9346 528.971 93.6273 529.386 94.221C529.802 94.8147 530.4 95.2535 531.179 95.5373L528.122 100.567H530.37L533.236 95.851H536.371V100.567H538.462ZM530.853 92.1653C530.853 92.7553 531.055 93.2314 531.46 93.5937C531.865 93.9559 532.4 94.1407 533.067 94.1482H536.371V90.1265H533.382C532.61 90.1265 531.996 90.315 531.539 90.6922C531.082 91.0694 530.853 91.5604 530.853 92.1653ZM254.615 94.4473H250V95.9868H254.615V94.4473Z" fill="#2B3F70"/>
<path fill-rule="evenodd" clip-rule="evenodd" d="M10.6543 35.6809L17.0272 23.8625L50.2894 91.0639L40.7562 96.4972L10.6543 35.6809ZM30.7992 102.172L3.99819 48.0245L1.42298 52.8002C-0.118572 55.659 -0.118572 59.1811 1.42298 62.0399L24.882 105.544L30.7992 102.172ZM33.0408 0.719286C33.5398 0.623293 34.0504 0.57373 34.5676 0.57373L85.9098 0.57373C88.9929 0.57373 91.8418 2.33481 93.3834 5.19359L116.898 48.8008C116.309 48.2756 115.656 47.8042 114.944 47.3982L33.0408 0.719286ZM116.901 66.0332L93.3834 109.647C91.8418 112.505 88.9929 114.266 85.9098 114.266H34.5676C34.0504 114.266 33.5398 114.217 33.0408 114.121L114.944 67.4419C115.647 67.0413 116.302 66.5685 116.901 66.0332ZM79.7366 74.2811L89.2699 68.8478L73.512 37.0115L56.4867 27.3082L79.7366 74.2811ZM69.7796 79.9558L60.2464 85.3891L23.6833 11.5189L24.882 9.2958L38.7048 17.1738L69.7796 79.9558ZM91.2939 47.1459L99.2268 63.173L109.321 57.4201L91.2939 47.1459Z" fill="#FF453D"/>
<mask id="mask0" mask-type="alpha" maskUnits="userSpaceOnUse" x="0" y="0" width="117" height="115">
<path fill-rule="evenodd" clip-rule="evenodd" d="M10.6543 35.6809L17.0272 23.8625L50.2894 91.0639L40.7562 96.4972L10.6543 35.6809ZM30.7992 102.172L3.99819 48.0245L1.42298 52.8002C-0.118572 55.659 -0.118572 59.1811 1.42298 62.0399L24.882 105.544L30.7992 102.172ZM33.0408 0.719286C33.5398 0.623293 34.0504 0.57373 34.5676 0.57373L85.9098 0.57373C88.9929 0.57373 91.8418 2.33481 93.3834 5.19359L116.898 48.8008C116.309 48.2756 115.656 47.8042 114.944 47.3982L33.0408 0.719286ZM116.901 66.0332L93.3834 109.647C91.8418 112.505 88.9929 114.266 85.9098 114.266H34.5676C34.0504 114.266 33.5398 114.217 33.0408 114.121L114.944 67.4419C115.647 67.0413 116.302 66.5685 116.901 66.0332ZM79.7366 74.2811L89.2699 68.8478L73.512 37.0115L56.4867 27.3082L79.7366 74.2811ZM69.7796 79.9558L60.2464 85.3891L23.6833 11.5189L24.882 9.2958L38.7048 17.1738L69.7796 79.9558ZM91.2939 47.1459L99.2268 63.173L109.321 57.4201L91.2939 47.1459Z" fill="white"/>
</mask>
<g mask="url(#mask0)">
<path fill-rule="evenodd" clip-rule="evenodd" d="M106.069 -25.9849L23.1655 2.61775L112.742 53.7411V60.6968L23.1655 112.167L61.7769 133.644L112.742 129.673L131.422 92.3225V30.1159L106.069 -25.9849Z" fill="#2B3F70"/>
<path opacity="0.240002" fill-rule="evenodd" clip-rule="evenodd" d="M173.79 29.7928L120.746 51.2199L-4.73489 79.17L7.48261 102.511L173.79 29.7928Z" fill="white"/>
<path opacity="0.20401" fill-rule="evenodd" clip-rule="evenodd" d="M173.79 29.7928L120.746 51.2199L11.0731 119.179L7.4826 102.511L173.79 29.7928Z" fill="black"/>
</g>
</svg>
