<svg width="115" height="115" viewBox="0 0 115 115" fill="none" xmlns="http://www.w3.org/2000/svg">
<path opacity="0.053739" fill-rule="evenodd" clip-rule="evenodd" d="M57.5 115C89.2564 115 115 89.2564 115 57.5C115 25.7436 89.2564 0 57.5 0C25.7436 0 0 25.7436 0 57.5C0 89.2564 25.7436 115 57.5 115Z" fill="#2B3F70"/>
<mask id="mask0" mask-type="alpha" maskUnits="userSpaceOnUse" x="0" y="0" width="115" height="115">
<path fill-rule="evenodd" clip-rule="evenodd" d="M57.5 115C89.2564 115 115 89.2564 115 57.5C115 25.7436 89.2564 0 57.5 0C25.7436 0 0 25.7436 0 57.5C0 89.2564 25.7436 115 57.5 115Z" fill="white"/>
</mask>
<g mask="url(#mask0)">
<rect x="1" y="56" width="113" height="4" fill="#2B3F70"/>
<path fill-rule="evenodd" clip-rule="evenodd" d="M57.5 84C70.4787 84 81 80.866 81 77C81 74.605 81 72 81 72C81 72 62.4384 71 57.5 71C54.4986 71 34 72 34 72C34 72 34 74.0281 34 77C34 80.866 44.5213 84 57.5 84Z" stroke="#FF453D" stroke-width="4"/>
<path fill-rule="evenodd" clip-rule="evenodd" d="M57.5 124C70.4787 124 81 120.866 81 117C81 114.605 81 72 81 72C81 72 62.4384 71 57.5 71C54.4986 71 34 72 34 72C34 72 34 114.028 34 117C34 120.866 44.5213 124 57.5 124Z" stroke="#FF453D" stroke-width="4"/>
<rect x="42" y="83" width="4" height="29" fill="#FF453D"/>
<rect x="72" y="83" width="4" height="29" fill="#FF453D"/>
<rect x="65" y="83" width="4" height="29" fill="#FF453D"/>
<rect x="58" y="83" width="4" height="29" fill="#FF453D"/>
<path fill-rule="evenodd" clip-rule="evenodd" d="M35 87H45V91H35V87Z" fill="#FF453D"/>
<path fill-rule="evenodd" clip-rule="evenodd" d="M35 95H45V99H35V95Z" fill="#FF453D"/>
<path fill-rule="evenodd" clip-rule="evenodd" d="M35 103H45V107H35V103Z" fill="#FF453D"/>
<path fill-rule="evenodd" clip-rule="evenodd" d="M57.5 78C70.4787 78 81 74.866 81 71C81 67.134 70.4787 64 57.5 64C44.5213 64 34 67.134 34 71C34 74.866 44.5213 78 57.5 78Z" fill="white" stroke="#FF453D" stroke-width="4"/>
<path fill-rule="evenodd" clip-rule="evenodd" d="M57.5 72C63.299 72 68 71.5523 68 71C68 70.4477 63.299 70 57.5 70C51.701 70 47 70.4477 47 71C47 71.5523 51.701 72 57.5 72Z" stroke="#FF453D" stroke-width="4"/>
<path fill-rule="evenodd" clip-rule="evenodd" d="M10 52L17 47L24 52V58H10L10 52Z" fill="white" stroke="#2B3F70" stroke-width="4"/>
<path fill-rule="evenodd" clip-rule="evenodd" d="M18 45L28 38L38 45V58H18L18 45Z" fill="white" stroke="#2B3F70" stroke-width="4"/>
<path fill-rule="evenodd" clip-rule="evenodd" d="M26 48H30V57H26V48Z" fill="#2B3F70"/>
<path fill-rule="evenodd" clip-rule="evenodd" d="M91 52L98 47L105 52V58H91V52Z" fill="white" stroke="#2B3F70" stroke-width="4"/>
<path fill-rule="evenodd" clip-rule="evenodd" d="M77 45L87 38L97 45V58H77L77 45Z" fill="white" stroke="#2B3F70" stroke-width="4"/>
<path fill-rule="evenodd" clip-rule="evenodd" d="M85 48H89V57H85V48Z" fill="#2B3F70"/>
</g>
</svg>
