<svg width="29" height="29" viewBox="0 0 29 29" fill="none" xmlns="http://www.w3.org/2000/svg">
<path opacity="0.7" fill-rule="evenodd" clip-rule="evenodd" d="M13 2C6.92487 2 2 6.92487 2 13C2 19.0751 6.92487 24 13 24C19.0751 24 24 19.0751 24 13C24 6.92487 19.0751 2 13 2ZM0 13C0 5.8203 5.8203 0 13 0C20.1797 0 26 5.8203 26 13C26 16.3355 24.7438 19.3777 22.6787 21.6791L28.2423 27.2427L26.8281 28.6569L21.2326 23.0615C18.9908 24.898 16.1241 26 13 26C5.8203 26 0 20.1797 0 13ZM12 8V12H8V14H12V18H14V14H18V12H14V8H12Z" fill="white"/>
</svg>
